<?xml version="1.0" standalone="no"?>
<!DOCTYPE svg PUBLIC "-//W3C//DTD SVG 20010904//EN"
 "http://www.w3.org/TR/2001/REC-SVG-20010904/DTD/svg10.dtd">
<svg version="1.0" xmlns="http://www.w3.org/2000/svg"
 width="407.000000pt" height="407.000000pt" viewBox="0 0 407.000000 407.000000"
 preserveAspectRatio="xMidYMid meet">
<metadata>
Created by potrace 1.11, written by Peter Selinger 2001-2013
</metadata>
<g transform="translate(0.000000,407.000000) scale(0.100000,-0.100000)"
fill="#000000" stroke="none">
<path d="M2608 3775 c-2 -2 -25 -6 -53 -9 -109 -14 -236 -36 -350 -61 -66 -15
-129 -28 -140 -31 -11 -2 -83 -17 -160 -33 -77 -16 -158 -32 -180 -35 -22 -4
-80 -13 -130 -21 -125 -19 -453 -65 -570 -79 -54 -7 -158 -15 -285 -21 -176
-9 -363 -44 -426 -79 -55 -30 -84 -91 -84 -177 0 -89 24 -125 105 -159 54 -22
75 -25 205 -26 80 -1 174 2 210 6 36 4 92 11 125 14 58 6 268 32 330 41 17 2
64 7 106 11 l76 6 7 -113 c3 -63 4 -154 2 -204 -2 -49 -7 -205 -11 -345 -4
-140 -8 -273 -10 -295 -2 -22 -4 -76 -5 -120 -2 -44 -7 -85 -12 -92 -6 -7 -5
-14 2 -18 8 -5 8 -10 0 -20 -6 -7 -7 -15 -3 -18 5 -3 7 -27 6 -54 -16 -355
-22 -1044 -11 -1133 23 -178 115 -333 251 -426 l38 -25 56 16 c70 20 163 67
196 97 59 55 67 125 25 225 -6 15 -12 30 -13 33 0 3 -13 30 -27 60 -41 89 -57
173 -57 300 1 104 11 217 25 279 5 22 8 23 62 16 84 -10 306 -69 392 -103 41
-17 163 -73 270 -125 213 -103 435 -199 630 -272 346 -130 521 -135 649 -20
85 77 107 188 62 311 -36 97 -37 98 -123 84 -147 -23 -165 -25 -258 -24 -94 0
-97 1 -300 78 -113 43 -279 110 -370 148 -129 55 -463 190 -583 236 -13 5 17
30 124 101 202 135 304 219 508 421 153 151 229 244 350 423 47 70 59 82 109
103 119 51 152 78 173 143 6 20 27 69 45 109 19 41 34 87 34 104 0 56 -86 170
-165 219 -72 45 -149 6 -293 -148 -96 -103 -356 -400 -433 -494 -200 -243
-352 -407 -471 -505 -104 -86 -321 -235 -406 -278 l-32 -17 5 343 c6 378 13
601 20 662 2 23 7 68 10 101 3 33 10 96 15 140 5 44 11 102 14 128 8 80 29 94
209 136 263 63 293 66 667 66 330 0 347 1 380 21 82 48 103 157 50 258 -16 31
-36 64 -44 72 -46 46 -193 73 -393 72 -78 0 -143 -1 -145 -3z"/>
</g>
</svg>
